<svg xmlns="http://www.w3.org/2000/svg" width="240.635" height="41.596" viewBox="0 0 240.635 41.596">
  <g id="biorad-logo" transform="translate(-16 -12)">
    <g id="Group_123" data-name="Group 123" transform="translate(118.604 43.187)">
      <g id="Group_730" data-name="Group 730" transform="translate(0 0)">
        <path id="Path_75" data-name="Path 75" d="M414.457,1451.164a2.474,2.474,0,0,0,1.72.7c.619,0,1.158-.31,1.158-.917,0-1.261-3.107-.952-3.107-2.832,0-1.031.928-1.594,1.972-1.594a2.425,2.425,0,0,1,1.777.631l-.356.6a2.045,2.045,0,0,0-1.444-.528c-.585,0-1.147.252-1.147.894,0,1.273,3.107.928,3.107,2.832,0,.94-.814,1.616-1.972,1.616a2.938,2.938,0,0,1-2.132-.836Z" transform="translate(-414.033 -1444.309)" fill="#fff"/>
        <path id="Path_76" data-name="Path 76" d="M434.533,1446.521a2.838,2.838,0,0,1,2.109.825l-.4.585a2.441,2.441,0,0,0-1.685-.7,2.211,2.211,0,0,0-2.247,2.315,2.237,2.237,0,0,0,2.27,2.316,2.54,2.54,0,0,0,1.845-.814l.356.607a3.08,3.08,0,0,1-2.247.905,3.021,3.021,0,1,1,0-6.042Z" transform="translate(-426.36 -1444.309)" fill="#fff"/>
        <path id="Path_77" data-name="Path 77" d="M454.158,1439.2h.814v.975h-.814Zm.023,2.293h.78v5.766h-.78Z" transform="translate(-442.34 -1439.146)" fill="#fff"/>
        <path id="Path_78" data-name="Path 78" d="M464.745,1446.521a2.4,2.4,0,0,1,2.408,2.66c0,.137-.023.4-.023.4H462.7a2.171,2.171,0,0,0,2.235,2.281,2.681,2.681,0,0,0,1.754-.7l.355.6a3.3,3.3,0,0,1-2.132.8,2.914,2.914,0,0,1-3.015-3.015A2.815,2.815,0,0,1,464.745,1446.521Zm1.617,2.419a1.623,1.623,0,0,0-1.639-1.766,1.955,1.955,0,0,0-1.983,1.766Z" transform="translate(-447.804 -1444.309)" fill="#fff"/>
        <path id="Path_79" data-name="Path 79" d="M484.786,1446.658h.768v.86c0,.252-.023.458-.023.458h.023a2.455,2.455,0,0,1,2.3-1.456c1.421,0,1.926.814,1.926,2.236v3.669h-.779v-3.462c0-.906-.138-1.708-1.25-1.708a2.191,2.191,0,0,0-2.1,1.628,2.843,2.843,0,0,0-.092.78v2.762h-.78Z" transform="translate(-463.947 -1444.309)" fill="#fff"/>
        <path id="Path_80" data-name="Path 80" d="M509.529,1446.521a2.839,2.839,0,0,1,2.109.825l-.4.585a2.443,2.443,0,0,0-1.685-.7,2.211,2.211,0,0,0-2.247,2.315,2.237,2.237,0,0,0,2.27,2.316,2.541,2.541,0,0,0,1.846-.814l.355.607a3.08,3.08,0,0,1-2.247.905,3.021,3.021,0,1,1,0-6.042Z" transform="translate(-479.268 -1444.309)" fill="#fff"/>
        <path id="Path_81" data-name="Path 81" d="M530.712,1446.521a2.4,2.4,0,0,1,2.407,2.66c0,.137-.023.4-.023.4h-4.425a2.171,2.171,0,0,0,2.235,2.281,2.681,2.681,0,0,0,1.754-.7l.355.6a3.3,3.3,0,0,1-2.132.8,2.915,2.915,0,0,1-3.015-3.015A2.815,2.815,0,0,1,530.712,1446.521Zm1.616,2.419a1.623,1.623,0,0,0-1.639-1.766,1.956,1.956,0,0,0-1.984,1.766Z" transform="translate(-494.342 -1444.309)" fill="#fff"/>
        <path id="Path_82" data-name="Path 82" d="M560.386,1442.081h-.722v-.653h.722v-.275a1.882,1.882,0,0,1,1.995-2.144,2.333,2.333,0,0,1,.355.023v.7a1.528,1.528,0,0,0-.275-.023c-.447,0-1.3.161-1.3,1.445v.275h1.479v.653h-1.479v5.044h-.779Z" transform="translate(-516.773 -1439.009)" fill="#fff"/>
        <path id="Path_83" data-name="Path 83" d="M575.129,1446.521a3.021,3.021,0,1,1-3.049,2.992A2.985,2.985,0,0,1,575.129,1446.521Zm0,5.343a2.275,2.275,0,0,0,2.247-2.35,2.247,2.247,0,1,0-4.494,0A2.274,2.274,0,0,0,575.129,1451.864Z" transform="translate(-525.532 -1444.309)" fill="#fff"/>
        <path id="Path_84" data-name="Path 84" d="M597.727,1446.851h.768v1.02c0,.253-.023.458-.023.458h.023a1.967,1.967,0,0,1,1.823-1.536,1.579,1.579,0,0,1,.309.034v.768a1.97,1.97,0,0,0-.287-.023,1.848,1.848,0,0,0-1.674,1.49,3.807,3.807,0,0,0-.161,1.124v2.43h-.78Z" transform="translate(-543.625 -1444.503)" fill="#fff"/>
        <path id="Path_85" data-name="Path 85" d="M622.05,1446.658h.745v.562a4.286,4.286,0,0,1-.023.447h.023a2.094,2.094,0,0,1,2-1.146c1.548,0,2.51,1.239,2.51,3.027,0,1.823-1.089,3.015-2.579,3.015a2.082,2.082,0,0,1-1.892-1.1h-.023a5.034,5.034,0,0,1,.023.5v2.752h-.78Zm2.591,5.217c1.02,0,1.857-.86,1.857-2.327,0-1.41-.746-2.315-1.823-2.315-.963,0-1.868.688-1.868,2.327C622.807,1450.717,623.449,1451.875,624.641,1451.875Z" transform="translate(-560.784 -1444.309)" fill="#fff"/>
        <path id="Path_86" data-name="Path 86" d="M646.454,1446.521a2.4,2.4,0,0,1,2.408,2.66c0,.137-.023.4-.023.4h-4.425a2.171,2.171,0,0,0,2.235,2.281,2.681,2.681,0,0,0,1.754-.7l.355.6a3.3,3.3,0,0,1-2.132.8,2.915,2.915,0,0,1-3.015-3.015A2.815,2.815,0,0,1,646.454,1446.521Zm1.617,2.419a1.623,1.623,0,0,0-1.639-1.766,1.955,1.955,0,0,0-1.983,1.766Z" transform="translate(-575.995 -1444.309)" fill="#fff"/>
        <path id="Path_87" data-name="Path 87" d="M668.1,1446.521a3.021,3.021,0,1,1-3.049,2.992A2.985,2.985,0,0,1,668.1,1446.521Zm0,5.343a2.275,2.275,0,0,0,2.247-2.35,2.247,2.247,0,1,0-4.494,0A2.274,2.274,0,0,0,668.1,1451.864Z" transform="translate(-591.123 -1444.309)" fill="#fff"/>
        <path id="Path_88" data-name="Path 88" d="M690.7,1446.658h.745v.562a4.3,4.3,0,0,1-.023.447h.023a2.094,2.094,0,0,1,1.995-1.146c1.548,0,2.511,1.239,2.511,3.027,0,1.823-1.089,3.015-2.579,3.015a2.082,2.082,0,0,1-1.892-1.1h-.023s.023.207.023.5v2.752h-.78Zm2.591,5.217c1.02,0,1.857-.86,1.857-2.327,0-1.41-.745-2.315-1.823-2.315-.963,0-1.869.688-1.869,2.327C691.459,1450.717,692.1,1451.875,693.293,1451.875Z" transform="translate(-609.217 -1444.309)" fill="#fff"/>
        <path id="Path_89" data-name="Path 89" d="M713.43,1439.2h.78v6.524c0,.757.344.871.641.871a1.764,1.764,0,0,0,.195-.011v.7a1.945,1.945,0,0,1-.286.023c-.482,0-1.33-.149-1.33-1.41Z" transform="translate(-625.252 -1439.146)" fill="#fff"/>
        <path id="Path_90" data-name="Path 90" d="M724.718,1446.521a2.4,2.4,0,0,1,2.407,2.66c0,.137-.023.4-.023.4h-4.425a2.171,2.171,0,0,0,2.235,2.281,2.681,2.681,0,0,0,1.754-.7l.355.6a3.3,3.3,0,0,1-2.132.8,2.915,2.915,0,0,1-3.015-3.015A2.815,2.815,0,0,1,724.718,1446.521Zm1.616,2.419a1.623,1.623,0,0,0-1.639-1.766,1.956,1.956,0,0,0-1.984,1.766Z" transform="translate(-631.208 -1444.309)" fill="#fff"/>
      </g>
      <g id="Group_731" data-name="Group 731" transform="translate(0 0)">
        <path id="Path_75-2" data-name="Path 75" d="M414.457,1451.164a2.474,2.474,0,0,0,1.72.7c.619,0,1.158-.31,1.158-.917,0-1.261-3.107-.952-3.107-2.832,0-1.031.928-1.594,1.972-1.594a2.425,2.425,0,0,1,1.777.631l-.356.6a2.045,2.045,0,0,0-1.444-.528c-.585,0-1.147.252-1.147.894,0,1.273,3.107.928,3.107,2.832,0,.94-.814,1.616-1.972,1.616a2.938,2.938,0,0,1-2.132-.836Z" transform="translate(-414.033 -1444.309)" fill="#fff"/>
        <path id="Path_76-2" data-name="Path 76" d="M434.533,1446.521a2.838,2.838,0,0,1,2.109.825l-.4.585a2.441,2.441,0,0,0-1.685-.7,2.211,2.211,0,0,0-2.247,2.315,2.237,2.237,0,0,0,2.27,2.316,2.54,2.54,0,0,0,1.845-.814l.356.607a3.08,3.08,0,0,1-2.247.905,3.021,3.021,0,1,1,0-6.042Z" transform="translate(-426.36 -1444.309)" fill="#fff"/>
        <path id="Path_77-2" data-name="Path 77" d="M454.158,1439.2h.814v.975h-.814Zm.023,2.293h.78v5.766h-.78Z" transform="translate(-442.34 -1439.146)" fill="#fff"/>
        <path id="Path_78-2" data-name="Path 78" d="M464.745,1446.521a2.4,2.4,0,0,1,2.408,2.66c0,.137-.023.4-.023.4H462.7a2.171,2.171,0,0,0,2.235,2.281,2.681,2.681,0,0,0,1.754-.7l.355.6a3.3,3.3,0,0,1-2.132.8,2.914,2.914,0,0,1-3.015-3.015A2.815,2.815,0,0,1,464.745,1446.521Zm1.617,2.419a1.623,1.623,0,0,0-1.639-1.766,1.955,1.955,0,0,0-1.983,1.766Z" transform="translate(-447.804 -1444.309)" fill="#fff"/>
        <path id="Path_79-2" data-name="Path 79" d="M484.786,1446.658h.768v.86c0,.252-.023.458-.023.458h.023a2.455,2.455,0,0,1,2.3-1.456c1.421,0,1.926.814,1.926,2.236v3.669h-.779v-3.462c0-.906-.138-1.708-1.25-1.708a2.191,2.191,0,0,0-2.1,1.628,2.843,2.843,0,0,0-.092.78v2.762h-.78Z" transform="translate(-463.947 -1444.309)" fill="#fff"/>
        <path id="Path_80-2" data-name="Path 80" d="M509.529,1446.521a2.839,2.839,0,0,1,2.109.825l-.4.585a2.443,2.443,0,0,0-1.685-.7,2.211,2.211,0,0,0-2.247,2.315,2.237,2.237,0,0,0,2.27,2.316,2.541,2.541,0,0,0,1.846-.814l.355.607a3.08,3.08,0,0,1-2.247.905,3.021,3.021,0,1,1,0-6.042Z" transform="translate(-479.268 -1444.309)" fill="#fff"/>
        <path id="Path_81-2" data-name="Path 81" d="M530.712,1446.521a2.4,2.4,0,0,1,2.407,2.66c0,.137-.023.4-.023.4h-4.425a2.171,2.171,0,0,0,2.235,2.281,2.681,2.681,0,0,0,1.754-.7l.355.6a3.3,3.3,0,0,1-2.132.8,2.915,2.915,0,0,1-3.015-3.015A2.815,2.815,0,0,1,530.712,1446.521Zm1.616,2.419a1.623,1.623,0,0,0-1.639-1.766,1.956,1.956,0,0,0-1.984,1.766Z" transform="translate(-494.342 -1444.309)" fill="#fff"/>
        <path id="Path_82-2" data-name="Path 82" d="M560.386,1442.081h-.722v-.653h.722v-.275a1.882,1.882,0,0,1,1.995-2.144,2.333,2.333,0,0,1,.355.023v.7a1.528,1.528,0,0,0-.275-.023c-.447,0-1.3.161-1.3,1.445v.275h1.479v.653h-1.479v5.044h-.779Z" transform="translate(-516.773 -1439.009)" fill="#fff"/>
        <path id="Path_83-2" data-name="Path 83" d="M575.129,1446.521a3.021,3.021,0,1,1-3.049,2.992A2.985,2.985,0,0,1,575.129,1446.521Zm0,5.343a2.275,2.275,0,0,0,2.247-2.35,2.247,2.247,0,1,0-4.494,0A2.274,2.274,0,0,0,575.129,1451.864Z" transform="translate(-525.532 -1444.309)" fill="#fff"/>
        <path id="Path_84-2" data-name="Path 84" d="M597.727,1446.851h.768v1.02c0,.253-.023.458-.023.458h.023a1.967,1.967,0,0,1,1.823-1.536,1.579,1.579,0,0,1,.309.034v.768a1.97,1.97,0,0,0-.287-.023,1.848,1.848,0,0,0-1.674,1.49,3.807,3.807,0,0,0-.161,1.124v2.43h-.78Z" transform="translate(-543.625 -1444.503)" fill="#fff"/>
        <path id="Path_85-2" data-name="Path 85" d="M622.05,1446.658h.745v.562a4.286,4.286,0,0,1-.023.447h.023a2.094,2.094,0,0,1,2-1.146c1.548,0,2.51,1.239,2.51,3.027,0,1.823-1.089,3.015-2.579,3.015a2.082,2.082,0,0,1-1.892-1.1h-.023a5.034,5.034,0,0,1,.023.5v2.752h-.78Zm2.591,5.217c1.02,0,1.857-.86,1.857-2.327,0-1.41-.746-2.315-1.823-2.315-.963,0-1.868.688-1.868,2.327C622.807,1450.717,623.449,1451.875,624.641,1451.875Z" transform="translate(-560.784 -1444.309)" fill="#fff"/>
        <path id="Path_86-2" data-name="Path 86" d="M646.454,1446.521a2.4,2.4,0,0,1,2.408,2.66c0,.137-.023.4-.023.4h-4.425a2.171,2.171,0,0,0,2.235,2.281,2.681,2.681,0,0,0,1.754-.7l.355.6a3.3,3.3,0,0,1-2.132.8,2.915,2.915,0,0,1-3.015-3.015A2.815,2.815,0,0,1,646.454,1446.521Zm1.617,2.419a1.623,1.623,0,0,0-1.639-1.766,1.955,1.955,0,0,0-1.983,1.766Z" transform="translate(-575.995 -1444.309)" fill="#fff"/>
        <path id="Path_87-2" data-name="Path 87" d="M668.1,1446.521a3.021,3.021,0,1,1-3.049,2.992A2.985,2.985,0,0,1,668.1,1446.521Zm0,5.343a2.275,2.275,0,0,0,2.247-2.35,2.247,2.247,0,1,0-4.494,0A2.274,2.274,0,0,0,668.1,1451.864Z" transform="translate(-591.123 -1444.309)" fill="#fff"/>
        <path id="Path_88-2" data-name="Path 88" d="M690.7,1446.658h.745v.562a4.3,4.3,0,0,1-.023.447h.023a2.094,2.094,0,0,1,1.995-1.146c1.548,0,2.511,1.239,2.511,3.027,0,1.823-1.089,3.015-2.579,3.015a2.082,2.082,0,0,1-1.892-1.1h-.023s.023.207.023.5v2.752h-.78Zm2.591,5.217c1.02,0,1.857-.86,1.857-2.327,0-1.41-.745-2.315-1.823-2.315-.963,0-1.869.688-1.869,2.327C691.459,1450.717,692.1,1451.875,693.293,1451.875Z" transform="translate(-609.217 -1444.309)" fill="#fff"/>
        <path id="Path_89-2" data-name="Path 89" d="M713.43,1439.2h.78v6.524c0,.757.344.871.641.871a1.764,1.764,0,0,0,.195-.011v.7a1.945,1.945,0,0,1-.286.023c-.482,0-1.33-.149-1.33-1.41Z" transform="translate(-625.252 -1439.146)" fill="#fff"/>
        <path id="Path_90-2" data-name="Path 90" d="M724.718,1446.521a2.4,2.4,0,0,1,2.407,2.66c0,.137-.023.4-.023.4h-4.425a2.171,2.171,0,0,0,2.235,2.281,2.681,2.681,0,0,0,1.754-.7l.355.6a3.3,3.3,0,0,1-2.132.8,2.915,2.915,0,0,1-3.015-3.015A2.815,2.815,0,0,1,724.718,1446.521Zm1.616,2.419a1.623,1.623,0,0,0-1.639-1.766,1.956,1.956,0,0,0-1.984,1.766Z" transform="translate(-631.208 -1444.309)" fill="#fff"/>
      </g>
    </g>
    <g id="Group_124" data-name="Group 124" transform="translate(16 12)">
      <path id="Path_91" data-name="Path 91" d="M76.745,1341.915a8.194,8.194,0,0,1,6.115,2.736,9.763,9.763,0,0,1,2.61,7.027,10.179,10.179,0,0,1-2.682,7.188,8.128,8.128,0,0,1-6.1,2.9,6.959,6.959,0,0,1-5.668-2.825v2.539H65.659v-26.536h5.364v9.441A7.338,7.338,0,0,1,76.745,1341.915Zm-5.794,9.96a5.576,5.576,0,0,0,1.305,3.826,4.064,4.064,0,0,0,3.165,1.484,4.334,4.334,0,0,0,3.254-1.484,5.336,5.336,0,0,0,1.395-3.809,5.756,5.756,0,0,0-1.359-3.9,4.165,4.165,0,0,0-3.254-1.573,4.026,4.026,0,0,0-3.2,1.556A5.855,5.855,0,0,0,70.952,1351.875Z" transform="translate(-65.659 -1334.404)" fill="#e7b413"/>
      <path id="Path_92" data-name="Path 92" d="M137.809,1338.5a3.2,3.2,0,1,1,2.235.911A3.04,3.04,0,0,1,137.809,1338.5Zm4.917,21.689h-5.364v-19.24h5.364Z" transform="translate(-115.916 -1333.119)" fill="#e7b413"/>
      <path id="Path_93" data-name="Path 93" d="M182.318,1368.56a9.513,9.513,0,0,1-2.9,7.045,10.687,10.687,0,0,1-14.555,0,10.038,10.038,0,0,1,0-14.108,10.637,10.637,0,0,1,14.555,0A9.573,9.573,0,0,1,182.318,1368.56Zm-14.948,0a5.513,5.513,0,0,0,1.341,3.844,4.712,4.712,0,0,0,6.866,0,5.512,5.512,0,0,0,1.341-3.844,5.58,5.58,0,0,0-1.341-3.862,4.674,4.674,0,0,0-6.866,0A5.581,5.581,0,0,0,167.37,1368.56Z" transform="translate(-133.604 -1351.108)" fill="#e7b413"/>
      <path id="Path_94" data-name="Path 94" d="M246.595,1363.661a4.061,4.061,0,0,0-3.576,1.7,7.716,7.716,0,0,0-1.18,4.488v8.333h-5.364v-19.24h5.364v2.539a9.01,9.01,0,0,1,2.593-2,7.051,7.051,0,0,1,3.165-.859l.036,5.043Z" transform="translate(-186.165 -1351.108)" fill="#e7b413"/>
      <path id="Path_95" data-name="Path 95" d="M291.434,1378.18h-5.043v-2.324a6.321,6.321,0,0,1-5.132,2.61,7.628,7.628,0,0,1-5.132-1.77,5.892,5.892,0,0,1-2.074-4.72,4.993,4.993,0,0,1,2.146-4.417,10.267,10.267,0,0,1,5.865-1.466h4.005v-.107q0-3.075-3.255-3.075a8.787,8.787,0,0,0-2.95.555,9.577,9.577,0,0,0-2.629,1.376l-2.4-3.469a14.351,14.351,0,0,1,8.654-2.754,8.957,8.957,0,0,1,5.722,1.753q2.216,1.752,2.217,5.543Zm-5.4-7.331v-.929h-3.362q-3.219,0-3.219,2a1.842,1.842,0,0,0,.769,1.592,3.718,3.718,0,0,0,2.2.554,3.91,3.91,0,0,0,2.521-.877A2.851,2.851,0,0,0,286.034,1370.849Z" transform="translate(-212.677 -1351.108)" fill="#e7b413"/>
      <path id="Path_96" data-name="Path 96" d="M347.042,1361.763a8.126,8.126,0,0,1-6.1-2.9,10.178,10.178,0,0,1-2.682-7.188,9.76,9.76,0,0,1,2.611-7.027,8.192,8.192,0,0,1,6.115-2.736,7.34,7.34,0,0,1,5.722,2.468v-9.441h5.364v26.536H352.71v-2.539A6.96,6.96,0,0,1,347.042,1361.763Zm-3.38-9.87a5.336,5.336,0,0,0,1.394,3.809,4.334,4.334,0,0,0,3.254,1.484,4.065,4.065,0,0,0,3.165-1.484,5.579,5.579,0,0,0,1.305-3.826,5.858,5.858,0,0,0-1.305-3.9,4.027,4.027,0,0,0-3.2-1.556,4.164,4.164,0,0,0-3.254,1.573A5.755,5.755,0,0,0,343.662,1351.893Z" transform="translate(-257.975 -1334.404)" fill="#e7b413"/>
      <path id="Path_97" data-name="Path 97" d="M432.459,1367.809v10.371h-5.4v-10.514a6.312,6.312,0,0,0-.7-3.362,2.487,2.487,0,0,0-2.253-1.073,3.842,3.842,0,0,0-2.753,1.162,4.547,4.547,0,0,0-1.2,3.416v10.371h-5.364v-19.24h5.364v2.181a6.639,6.639,0,0,1,5.078-2.5,5.514,5.514,0,0,1,3.308,1.073,6.988,6.988,0,0,1,2.235,2.611,7.548,7.548,0,0,1,2.986-2.718,8.178,8.178,0,0,1,3.773-.966,7.51,7.51,0,0,1,5.472,2.021,7.8,7.8,0,0,1,2.074,5.847v11.694h-5.4v-10.514q0-4.434-3.254-4.434a3.844,3.844,0,0,0-2.789,1.162A4.589,4.589,0,0,0,432.459,1367.809Z" transform="translate(-311.966 -1351.108)" fill="#a2aeb5"/>
      <path id="Path_98" data-name="Path 98" d="M540.33,1375.391a10.756,10.756,0,0,1-7.635,3.075,10.13,10.13,0,0,1-7.242-2.7,9.484,9.484,0,0,1-2.861-7.242,9.339,9.339,0,0,1,2.915-7.224,9.832,9.832,0,0,1,6.884-2.682,9.955,9.955,0,0,1,6.741,2.4,8.245,8.245,0,0,1,2.772,6.581v2.861H527.885a3.825,3.825,0,0,0,1.645,2.575,5.263,5.263,0,0,0,3.147,1,6.173,6.173,0,0,0,4.649-1.9Zm-5.15-11.409a4.063,4.063,0,0,0-2.7-.929,4.835,4.835,0,0,0-2.914.965,3.7,3.7,0,0,0-1.538,2.611h8.44A3.814,3.814,0,0,0,535.18,1363.982Z" transform="translate(-388.016 -1351.108)" fill="#a2aeb5"/>
      <path id="Path_99" data-name="Path 99" d="M598.859,1361.763a8.127,8.127,0,0,1-6.1-2.9,10.179,10.179,0,0,1-2.682-7.188,9.76,9.76,0,0,1,2.611-7.027,8.191,8.191,0,0,1,6.115-2.736,7.34,7.34,0,0,1,5.722,2.468v-9.441h5.364v26.536h-5.364v-2.539A6.959,6.959,0,0,1,598.859,1361.763Zm-3.38-9.87a5.337,5.337,0,0,0,1.395,3.809,4.334,4.334,0,0,0,3.255,1.484,4.065,4.065,0,0,0,3.165-1.484,5.578,5.578,0,0,0,1.3-3.826,5.858,5.858,0,0,0-1.3-3.9,4.027,4.027,0,0,0-3.2-1.556,4.164,4.164,0,0,0-3.254,1.573A5.755,5.755,0,0,0,595.48,1351.893Z" transform="translate(-435.627 -1334.404)" fill="#a2aeb5"/>
      <path id="Path_100" data-name="Path 100" d="M666.006,1338.5a3.2,3.2,0,1,1,2.235.911A3.041,3.041,0,0,1,666.006,1338.5Zm4.917,21.689h-5.364v-19.24h5.364Z" transform="translate(-488.548 -1333.119)" fill="#a2aeb5"/>
      <path id="Path_101" data-name="Path 101" d="M704.56,1372.19a5.6,5.6,0,0,1-2.092,4.56,8.1,8.1,0,0,1-5.31,1.716,14.218,14.218,0,0,1-4.47-.769,13.186,13.186,0,0,1-4.184-2.271l2.36-3.362a10.281,10.281,0,0,0,6.4,2.325,2.9,2.9,0,0,0,1.645-.411,1.262,1.262,0,0,0,.608-1.091,1.576,1.576,0,0,0-.841-1.252,9.5,9.5,0,0,0-2.432-1.073q-1.591-.5-2.431-.858a13.65,13.65,0,0,1-1.914-1.037,4.44,4.44,0,0,1-2.181-4.023,5.273,5.273,0,0,1,2.146-4.346,8.724,8.724,0,0,1,5.543-1.681,12.1,12.1,0,0,1,6.795,2.289l-2,3.576a8.783,8.783,0,0,0-4.989-1.717q-2.486,0-2.486,1.359a1.308,1.308,0,0,0,.787,1.18,15.9,15.9,0,0,0,2.611,1q1.824.572,2.593.876a13.051,13.051,0,0,1,1.841.948A4.373,4.373,0,0,1,704.56,1372.19Z" transform="translate(-505.063 -1351.108)" fill="#a2aeb5"/>
      <path id="Path_102" data-name="Path 102" d="M747.092,1386.533a7.8,7.8,0,0,1-5.329-2.289l2.432-3.969a4.018,4.018,0,0,0,2.79,1.323,1.566,1.566,0,0,0,1.287-.733,2.59,2.59,0,0,0,.536-1.556q0-.822-7.438-19.6h5.722l4.685,11.98,4.685-11.98h5.722l-8.94,22.673a6.388,6.388,0,0,1-2.45,3.057A6.6,6.6,0,0,1,747.092,1386.533Z" transform="translate(-542.359 -1351.88)" fill="#a2aeb5"/>
      <path id="Path_103" data-name="Path 103" d="M822.048,1372.19a5.6,5.6,0,0,1-2.092,4.56,8.1,8.1,0,0,1-5.311,1.716,14.214,14.214,0,0,1-4.47-.769,13.182,13.182,0,0,1-4.184-2.271l2.36-3.362a10.281,10.281,0,0,0,6.4,2.325,2.9,2.9,0,0,0,1.645-.411,1.261,1.261,0,0,0,.608-1.091,1.576,1.576,0,0,0-.84-1.252,9.512,9.512,0,0,0-2.432-1.073q-1.592-.5-2.432-.858a13.664,13.664,0,0,1-1.913-1.037,4.439,4.439,0,0,1-2.181-4.023,5.272,5.272,0,0,1,2.146-4.346,8.724,8.724,0,0,1,5.543-1.681,12.1,12.1,0,0,1,6.795,2.289l-2,3.576a8.784,8.784,0,0,0-4.989-1.717q-2.486,0-2.485,1.359a1.308,1.308,0,0,0,.786,1.18,15.931,15.931,0,0,0,2.611,1q1.824.572,2.593.876a13.016,13.016,0,0,1,1.842.948A4.372,4.372,0,0,1,822.048,1372.19Z" transform="translate(-587.948 -1351.108)" fill="#a2aeb5"/>
    </g>
    <g id="Group_125" data-name="Group 125" transform="translate(250.242 17.102)">
      <path id="Path_104" data-name="Path 104" d="M862.519,1350.942v2.728h-.545v-2.728H861v-.5h2.5v.5Z" transform="translate(-860.996 -1350.444)" fill="#fff"/>
      <path id="Path_105" data-name="Path 105" d="M870.88,1353.67h-.544v-3.227h.849l.974,2.026.974-2.026h.845v3.227h-.545v-2.521l-1.126,2.239H872l-1.122-2.239Z" transform="translate(-867.585 -1350.444)" fill="#fff"/>
    </g>
  </g>
</svg>
