<?xml version="1.0" encoding="UTF-8"?><svg id="_レイヤー_2" xmlns="http://www.w3.org/2000/svg" viewBox="0 0 179.23 72.59"><defs><style>.cls-1{fill:#004ea2;}.cls-2{fill:#eaf6fd;}.cls-3{fill:#fff;}</style></defs><g id="logo"><rect class="cls-2" x="1.5" y="1.5" width="176.23" height="39.18"/><path class="cls-1" d="m40.55,21.67l1.57,1.18-6.04,4.53-1.57-1.18-3.02,2.26,1.57,1.18-6.04,4.53-1.57-1.18-1.57,1.18-6.04-4.53,1.57-1.18-3.02-2.26-1.57,1.18-6.04-4.53,1.57-1.18-1.57-1.18,6.04-4.53,1.57,1.18,3.02-2.26-1.57-1.18,6.04-4.53,1.57,1.18,1.57-1.18,6.04,4.53-1.57,1.18,3.02,2.26,1.57-1.18,6.04,4.53-1.57,1.18Zm-12.08,0l-3.02-2.27-3.02,2.27,3.02,2.27,3.02-2.27Z"/><path class="cls-1" d="m164.11,9.91c-4.31,0-6.34,2.22-6.34,4.96v12.97c0,2.74,2.02,4.96,6.34,4.96s6.34-2.22,6.34-4.96v-12.97c0-2.74-2.03-4.96-6.34-4.96Zm4,17.8c0,1.52-1.58,3.19-3.97,3.19s-4.03-1.67-4.03-3.19v-12.73c0-1.52,1.63-3.16,4.03-3.16s3.97,1.64,3.97,3.16v12.73Z"/><path class="cls-1" d="m150.62,10.34h4.38v22.03h-2.27V12.53c0-1.01-.55-1.01-.55,0l-5.08,19.84h-2.54l-5.08-19.84c0-1.01-.55-1.01-.55,0v19.84h-2.27V10.34h4.38l4.51,18.25c0,1.44.55,1.44.55,0l4.51-18.25Z"/><path class="cls-1" d="m62.28,27.47c0,2.52-1.62,5.47-5.94,5.47s-6.47-2.43-6.47-4.97v-2.12h2.31v1.45c0,2.43,1.77,3.59,4.16,3.59s3.56-2.07,3.56-3.59c0-2.71-1.68-3.7-3.56-4.71-4.86-2.6-5.98-3.66-5.98-7.86,0-2.52,2.08-4.97,5.98-4.97s5.44,2.22,5.44,4.97v1.27h-2.47v-.63c0-1.52-.8-3.56-2.96-3.56s-3.51,1.12-3.51,3.56c0,2.67,1.3,3.14,3.51,4.31,3.9,2.06,5.94,3.94,5.94,7.78Z"/><path class="cls-1" d="m74.4,10.34h2.34v17.5c0,2.74-1.89,4.96-6.2,4.96s-6.21-2.22-6.21-4.96V10.34h2.34v17.37c0,1.52,1.5,3.19,3.89,3.19s3.83-1.67,3.83-3.19V10.34Z"/><path class="cls-1" d="m93.64,10.34h4.39v22.03h-2.27V12.53c0-1.01-.55-1.01-.55,0l-5.08,19.84h-2.54l-5.07-19.84c0-1.01-.55-1.01-.55,0v19.84h-2.27V10.34h4.38l4.5,18.25c0,1.44.55,1.44.55,0l4.5-18.25Z"/><rect class="cls-1" x="102.06" y="10.34" width="2.34" height="22.03"/><polygon class="cls-1" points="106.53 10.34 119.93 10.34 119.93 12.38 114.4 12.38 114.4 32.37 112.06 32.37 112.06 12.38 106.53 12.38 106.53 10.34"/><path class="cls-1" d="m127.89,9.91c-4.31,0-6.34,2.22-6.34,4.96v12.97c0,2.74,2.03,4.96,6.34,4.96s6.34-2.22,6.34-4.96v-12.97c0-2.74-2.03-4.96-6.34-4.96Zm4,17.8c0,1.52-1.57,3.19-3.96,3.19s-4.03-1.67-4.03-3.19v-12.73c0-1.52,1.64-3.16,4.03-3.16s3.96,1.64,3.96,3.16v12.73Z"/><rect class="cls-1" x="1.5" y="40.68" width="176.23" height="17.51"/><path class="cls-3" d="m31.63,51.11v.12c0,1.35-.72,1.55-1.14,1.55-.69,0-1.3-.16-1.3-2.07v-2.13c0-1.18.15-1.47.23-1.62.02-.08.33-.53,1.09-.53.17,0,.62.08.8.3.2.24.21.73.2,1.08v.12s1.27,0,1.27,0v-.11c.06-.86-.1-1.49-.49-1.9-.37-.39-.93-.58-1.71-.58-1.85,0-2.67.93-2.67,3v2.25c0,3.27,1.71,3.27,2.63,3.27.31,0,1.14,0,1.73-.6.44-.45.65-1.13.64-2.03v-.11h-1.28Z"/><path class="cls-3" d="m35.96,45.5l-2.6,8.19h1.27l.59-1.89h2.9l.57,1.89h1.38l-2.66-8.19h-1.46Zm-.41,5.18l1.1-3.75,1.13,3.75h-2.23Z"/><path class="cls-3" d="m45.57,51.48c-.05-1.4-.31-1.86-.98-2.07.71-.29,1.14-.95,1.14-1.82,0-1.01-.53-2.1-2.02-2.1h-2.86v8.19h1.25v-3.66h1.07c.43,0,1.02.09,1.08.91.03.31.04.61.05.91.03.74.06,1.37.27,1.78l.03.06h1.29l-.05-.15c-.15-.48-.26-1.71-.27-2.05Zm-3.48-4.87h1.41c.7,0,.95.57.95,1.1s-.25,1.2-.96,1.2h-1.4v-2.3Z"/><path class="cls-3" d="m50.9,49.38c.75-.29,1.1-.9,1.1-1.89,0-.06,0-.61-.34-1.12-.3-.44-.69-.87-1.87-.87h-2.7v8.19h2.67c1.66,0,2.51-.79,2.51-2.35,0-1.07-.46-1.73-1.36-1.95Zm-1.25-2.77c1,0,1.11.76,1.11,1.08,0,.52-.18,1.14-1.06,1.15h-1.36v-2.24h1.32Zm-1.32,3.35h.96c1.05,0,1.7.23,1.7,1.37,0,.46-.28,1.24-1.35,1.24h-1.32v-2.61Z"/><rect class="cls-3" x="53.85" y="45.5" width="1.25" height="8.19"/><path class="cls-3" d="m59.36,45.5h-2.56v8.19h1.94c1.39,0,2.26-.34,2.72-1.08.35-.56.5-1.56.5-3.27,0-.02,0-1.81-.36-2.56-.4-.86-1.14-1.28-2.24-1.28Zm-1.32,1.11h1.22c1.02,0,1.44.6,1.44,2.09v1.61c0,1.73-.42,2.26-1.81,2.26h-.84v-5.96Z"/><polygon class="cls-3" points="64.76 50.05 67.62 50.05 67.62 48.94 64.76 48.94 64.76 46.62 67.84 46.62 67.84 45.5 63.51 45.5 63.51 53.69 67.91 53.69 67.91 52.57 64.76 52.57 64.76 50.05"/><rect class="cls-3" x="71.19" y="50.03" width="2.66" height="1.08"/><path class="cls-3" d="m81.2,51.11v.12c-.01,1.4-.8,1.55-1.14,1.55-.69,0-1.3-.16-1.3-2.07v-2.13c0-1.18.15-1.46.23-1.62,0,0,.25-.53,1.09-.53.17,0,.62.08.8.3.2.24.21.73.2,1.08v.12s1.27,0,1.27,0v-.11c.06-.87-.1-1.49-.48-1.9-.37-.39-.93-.58-1.71-.58-1.85,0-2.67.93-2.67,3v2.25c0,3.27,1.71,3.27,2.63,3.27.31,0,1.14,0,1.73-.6.44-.45.65-1.13.64-2.03v-.11h-1.28Z"/><path class="cls-3" d="m87.62,49.38c.75-.29,1.1-.9,1.1-1.89,0-.06,0-.61-.34-1.12-.3-.44-.69-.87-1.87-.87h-2.71v8.19h2.67c1.66,0,2.51-.79,2.51-2.35,0-1.07-.46-1.73-1.36-1.95Zm-2.57-.53v-2.24h1.32c1,0,1.11.76,1.11,1.08,0,.52-.18,1.14-1.06,1.15h-1.36Zm0,3.72v-2.61h.96c1.05,0,1.7.23,1.7,1.37,0,.46-.28,1.24-1.35,1.24h-1.32Z"/><polygon class="cls-3" points="95.04 51.93 92.11 45.5 90.49 45.5 90.49 53.69 91.62 53.69 91.62 47.16 94.6 53.69 96.17 53.69 96.17 45.5 95.04 45.5 95.04 51.93"/><rect class="cls-3" x="99.95" y="50.03" width="2.66" height="1.08"/><path class="cls-3" d="m108.92,45.5h-2.56v8.19h1.95c1.39,0,2.26-.34,2.72-1.08.35-.55.5-1.56.5-3.27,0-.02,0-1.81-.36-2.56-.4-.86-1.14-1.28-2.24-1.28Zm-1.32,1.11h1.22c1.02,0,1.44.6,1.44,2.09v1.61c0,1.73-.42,2.26-1.81,2.26h-.84v-5.96Z"/><rect class="cls-3" x="113.2" y="45.5" width="1.25" height="8.19"/><path class="cls-3" d="m117.96,45.5l-2.6,8.19h1.27l.59-1.89h2.9l.57,1.89h1.38l-2.66-8.19h-1.46Zm-.41,5.18l1.1-3.75,1.13,3.75h-2.23Z"/><polygon class="cls-3" points="126.65 51.93 124.72 45.5 122.88 45.5 122.88 53.69 124.06 53.69 124.06 47.2 126.06 53.69 127.19 53.69 129.23 47.19 129.23 53.69 130.48 53.69 130.48 45.5 128.6 45.5 126.65 51.93"/><path class="cls-3" d="m134.62,45.34c-1.66,0-2.62.99-2.62,2.72v2.61c0,2.21.81,3.19,2.62,3.19s2.62-.98,2.62-3.19v-2.61c0-1.73-.95-2.72-2.62-2.72Zm-1.35,2.68c0-1.32.73-1.6,1.35-1.6s1.35.28,1.35,1.6v2.69c0,1.73-.49,2.07-1.35,2.07s-1.35-.34-1.35-2.07v-2.69Z"/><polygon class="cls-3" points="143.38 51.93 140.45 45.5 138.83 45.5 138.83 53.69 139.96 53.69 139.96 47.16 142.93 53.69 144.51 53.69 144.51 45.5 143.38 45.5 143.38 51.93"/><path class="cls-3" d="m150.95,46.78c-.4-.86-1.14-1.28-2.24-1.28h-2.56v8.19h1.94c1.39,0,2.26-.34,2.72-1.08.35-.56.5-1.56.5-3.27,0-.02,0-1.8-.36-2.56Zm-3.56-.17h1.22c1.02,0,1.44.6,1.44,2.09v1.61c0,1.73-.42,2.26-1.81,2.26h-.84v-5.96Z"/><path class="cls-3" d="m177.73,1.5v56.69H1.5V1.5h176.23m1.5-1.5H0v59.69h179.23V0h0Z"/><path class="cls-1" d="m7.23,67.72v-.02c0-1.9,1.48-3.46,3.51-3.46,1.2,0,1.93.33,2.63.92l-.93,1.12c-.52-.43-.98-.68-1.75-.68-1.07,0-1.92.95-1.92,2.08v.02c0,1.22.84,2.12,2.03,2.12.54,0,1.01-.13,1.39-.4v-.96h-1.48v-1.27h2.91v2.91c-.69.58-1.64,1.06-2.86,1.06-2.08,0-3.52-1.46-3.52-3.44Z"/><path class="cls-1" d="m15.14,64.06h1.45v6.98h-1.45v-6.98Z"/><path class="cls-1" d="m17.8,68.51v-.02c0-1.47,1.19-2.67,2.78-2.67s2.76,1.18,2.76,2.65v.02c0,1.47-1.19,2.67-2.78,2.67s-2.76-1.18-2.76-2.65Zm4.11,0v-.02c0-.75-.54-1.41-1.35-1.41s-1.33.64-1.33,1.4v.02c0,.76.55,1.42,1.35,1.42s1.33-.64,1.33-1.4Z"/><path class="cls-1" d="m25.98,70.37v.67h-1.45v-6.98h1.45v2.59c.35-.48.84-.83,1.6-.83,1.2,0,2.33.94,2.33,2.65v.02c0,1.71-1.12,2.65-2.33,2.65-.77,0-1.25-.35-1.6-.76Zm2.48-1.88v-.02c0-.85-.57-1.42-1.25-1.42s-1.24.56-1.24,1.42v.02c0,.85.56,1.42,1.24,1.42s1.25-.55,1.25-1.42Z"/><path class="cls-1" d="m30.75,69.57v-.02c0-1.12.85-1.63,2.06-1.63.52,0,.89.09,1.25.21v-.09c0-.6-.37-.94-1.1-.94-.55,0-.95.11-1.42.28l-.36-1.11c.56-.25,1.12-.41,1.99-.41.79,0,1.37.21,1.73.57.38.38.55.95.55,1.63v2.97h-1.41v-.55c-.35.39-.84.65-1.55.65-.97,0-1.76-.55-1.76-1.57Zm3.34-.33v-.26c-.25-.11-.57-.19-.93-.19-.62,0-1,.25-1,.71v.02c0,.39.33.62.79.62.68,0,1.14-.37,1.14-.9Z"/><path class="cls-1" d="m36.91,64.06h1.45v6.98h-1.45v-6.98Z"/><path class="cls-1" d="m42.3,70.07l.87-1.04c.6.5,1.23.81,2,.81.6,0,.97-.24.97-.63v-.02c0-.37-.23-.56-1.35-.85-1.35-.34-2.22-.72-2.22-2.05v-.02c0-1.21.98-2.02,2.34-2.02.98,0,1.81.31,2.49.85l-.76,1.11c-.59-.41-1.18-.66-1.74-.66s-.86.26-.86.58v.02c0,.44.29.58,1.44.88,1.36.35,2.12.84,2.12,2.01v.02c0,1.33-1.01,2.07-2.46,2.07-1.01,0-2.04-.35-2.84-1.07Z"/><path class="cls-1" d="m48.82,69.24v-3.32h1.45v2.86c0,.69.33,1.04.88,1.04s.91-.35.91-1.04v-2.86h1.45v5.12h-1.45v-.73c-.33.43-.76.82-1.5.82-1.1,0-1.74-.73-1.74-1.9Z"/><path class="cls-1" d="m54.97,65.92h1.45v.74c.35-.48.84-.83,1.6-.83,1.2,0,2.33.94,2.33,2.65v.02c0,1.71-1.12,2.65-2.33,2.65-.77,0-1.25-.35-1.6-.76v2.2h-1.45v-6.65Zm3.93,2.57v-.02c0-.85-.57-1.42-1.25-1.42s-1.24.56-1.24,1.42v.02c0,.85.56,1.42,1.24,1.42s1.25-.55,1.25-1.42Z"/><path class="cls-1" d="m61.57,65.92h1.45v.74c.35-.48.84-.83,1.6-.83,1.2,0,2.33.94,2.33,2.65v.02c0,1.71-1.12,2.65-2.33,2.65-.77,0-1.25-.35-1.6-.76v2.2h-1.45v-6.65Zm3.93,2.57v-.02c0-.85-.57-1.42-1.25-1.42s-1.24.56-1.24,1.42v.02c0,.85.56,1.42,1.24,1.42s1.25-.55,1.25-1.42Z"/><path class="cls-1" d="m67.9,68.51v-.02c0-1.47,1.19-2.67,2.78-2.67s2.76,1.18,2.76,2.65v.02c0,1.47-1.19,2.67-2.78,2.67s-2.76-1.18-2.76-2.65Zm4.11,0v-.02c0-.75-.54-1.41-1.35-1.41s-1.33.64-1.33,1.4v.02c0,.76.55,1.42,1.35,1.42s1.33-.64,1.33-1.4Z"/><path class="cls-1" d="m74.62,65.92h1.45v1.03c.3-.71.77-1.17,1.63-1.13v1.52h-.08c-.97,0-1.56.58-1.56,1.81v1.89h-1.45v-5.12Z"/><path class="cls-1" d="m79.05,69.59v-2.43h-.61v-1.24h.61v-1.31h1.45v1.31h1.2v1.24h-1.2v2.19c0,.33.14.5.47.5.27,0,.51-.07.72-.18v1.17c-.31.18-.66.3-1.15.3-.89,0-1.49-.35-1.49-1.54Z"/><path class="cls-1" d="m82.7,71.99c.66-.07.98-.4.94-.95h-.59v-1.53h1.55v1.29c0,1.26-.63,1.77-1.77,1.79l-.12-.6Z"/><path class="cls-1" d="m88.56,67.72v-.02c0-1.9,1.48-3.46,3.51-3.46,1.2,0,1.93.33,2.63.92l-.93,1.12c-.52-.43-.97-.68-1.75-.68-1.07,0-1.92.95-1.92,2.08v.02c0,1.22.84,2.12,2.03,2.12.54,0,1.01-.13,1.39-.4v-.96h-1.48v-1.27h2.91v2.91c-.69.58-1.63,1.06-2.86,1.06-2.08,0-3.52-1.46-3.52-3.44Z"/><path class="cls-1" d="m96.47,64.06h1.45v6.98h-1.45v-6.98Z"/><path class="cls-1" d="m99.14,68.51v-.02c0-1.47,1.19-2.67,2.78-2.67s2.76,1.18,2.76,2.65v.02c0,1.47-1.19,2.67-2.78,2.67s-2.76-1.18-2.76-2.65Zm4.11,0v-.02c0-.75-.54-1.41-1.35-1.41s-1.33.64-1.33,1.4v.02c0,.76.55,1.42,1.35,1.42s1.33-.64,1.33-1.4Z"/><path class="cls-1" d="m107.31,70.37v.67h-1.45v-6.98h1.45v2.59c.35-.48.84-.83,1.6-.83,1.2,0,2.33.94,2.33,2.65v.02c0,1.71-1.12,2.65-2.33,2.65-.77,0-1.25-.35-1.6-.76Zm2.48-1.88v-.02c0-.85-.57-1.42-1.25-1.42s-1.24.56-1.24,1.42v.02c0,.85.56,1.42,1.24,1.42s1.25-.55,1.25-1.42Z"/><path class="cls-1" d="m112.08,69.57v-.02c0-1.12.85-1.63,2.06-1.63.52,0,.89.09,1.25.21v-.09c0-.6-.37-.94-1.1-.94-.55,0-.95.11-1.42.28l-.36-1.11c.56-.25,1.12-.41,1.99-.41.79,0,1.37.21,1.73.57.38.38.55.95.55,1.63v2.97h-1.41v-.55c-.35.39-.84.65-1.55.65-.97,0-1.76-.55-1.76-1.57Zm3.34-.33v-.26c-.25-.11-.57-.19-.93-.19-.62,0-1,.25-1,.71v.02c0,.39.33.62.79.62.68,0,1.14-.37,1.14-.9Z"/><path class="cls-1" d="m118.25,64.06h1.45v6.98h-1.45v-6.98Z"/><path class="cls-1" d="m123.63,70.07l.87-1.04c.6.5,1.23.81,2,.81.6,0,.97-.24.97-.63v-.02c0-.37-.23-.56-1.35-.85-1.35-.34-2.22-.72-2.22-2.05v-.02c0-1.21.98-2.02,2.34-2.02.98,0,1.81.31,2.49.85l-.76,1.11c-.59-.41-1.18-.66-1.74-.66s-.86.26-.86.58v.02c0,.44.29.58,1.44.88,1.36.35,2.12.84,2.12,2.01v.02c0,1.33-1.01,2.07-2.46,2.07-1.01,0-2.04-.35-2.84-1.07Z"/><path class="cls-1" d="m129.9,68.51v-.02c0-1.47,1.19-2.67,2.78-2.67s2.76,1.18,2.76,2.65v.02c0,1.47-1.19,2.67-2.78,2.67s-2.76-1.18-2.76-2.65Zm4.11,0v-.02c0-.75-.54-1.41-1.35-1.41s-1.33.64-1.33,1.4v.02c0,.76.55,1.42,1.35,1.42s1.33-.64,1.33-1.4Z"/><path class="cls-1" d="m136.67,64.06h1.45v6.98h-1.45v-6.98Z"/><path class="cls-1" d="m139.57,69.24v-3.32h1.45v2.86c0,.69.33,1.04.88,1.04s.91-.35.91-1.04v-2.86h1.45v5.12h-1.45v-.73c-.33.43-.76.82-1.5.82-1.1,0-1.74-.73-1.74-1.9Z"/><path class="cls-1" d="m145.96,69.59v-2.43h-.61v-1.24h.61v-1.31h1.45v1.31h1.2v1.24h-1.2v2.19c0,.33.14.5.47.5.27,0,.51-.07.72-.18v1.17c-.31.18-.66.3-1.15.3-.89,0-1.49-.35-1.49-1.54Z"/><path class="cls-1" d="m149.86,64.06h1.53v1.29h-1.53v-1.29Zm.04,1.85h1.45v5.12h-1.45v-5.12Z"/><path class="cls-1" d="m152.53,68.51v-.02c0-1.47,1.19-2.67,2.78-2.67s2.76,1.18,2.76,2.65v.02c0,1.47-1.19,2.67-2.78,2.67s-2.76-1.18-2.76-2.65Zm4.11,0v-.02c0-.75-.54-1.41-1.35-1.41s-1.33.64-1.33,1.4v.02c0,.76.55,1.42,1.35,1.42s1.33-.64,1.33-1.4Z"/><path class="cls-1" d="m159.25,65.92h1.45v.73c.33-.43.76-.82,1.5-.82,1.1,0,1.74.73,1.74,1.9v3.32h-1.45v-2.86c0-.69-.33-1.04-.88-1.04s-.91.35-.91,1.04v2.86h-1.45v-5.12Z"/><path class="cls-1" d="m164.95,70.36l.62-.96c.55.4,1.14.61,1.62.61.42,0,.61-.15.61-.38v-.02c0-.32-.5-.42-1.06-.59-.72-.21-1.53-.55-1.53-1.54v-.02c0-1.04.84-1.63,1.87-1.63.65,0,1.36.22,1.91.59l-.55,1c-.51-.3-1.01-.48-1.39-.48-.35,0-.54.15-.54.35v.02c0,.29.49.42,1.04.61.72.24,1.55.58,1.55,1.52v.02c0,1.14-.85,1.65-1.96,1.65-.72,0-1.52-.24-2.2-.77Z"/><path class="cls-1" d="m170.37,69.51h1.55v1.53h-1.55v-1.53Z"/></g></svg>